<svg xmlns="http://www.w3.org/2000/svg" width="3015.32" height="1278.56" viewBox="0 0 3015.32 1278.56"><path d="M12006.1 6178.63h-125.9v-619.08h-343.7v619.08h-125.9v-743.76h526.2v-86.63h125.9v212.55h-56.6zM13190.8 6065.23c82.3 0 214.6-53.59 239.4-195.52h-479.1c28.1 128.46 138.7 195.52 239.7 195.52m0 124.68c-183.4 0-373.1-143.35-373.1-383.19 0-252.37 194.6-384.38 386.9-384.38 127.7 0 225.2 43.67 290 129.82l27 36.04-98.3 74.99-27.5-36.17c-40.3-53.06-105.1-80-192.4-80-108.7 0-225.3 61.45-252.9 198.01h606.9l2.6 42.54c7.1 111.62-26 209.71-95.5 283.69-69.7 74.27-172 118.65-273.7 118.65M14958.2 5805.48c0-178.28-146.1-258.46-249.8-258.46-114.8 0-238.4 80.89-238.4 258.46 0 178.45 123.6 259.75 238.4 259.75 103.7 0 249.8-80.6 249.8-259.75m-249.8 384.43c-91.3 0-173.6-30.31-237.2-86.45v75.17h-125.8v-982.37h125.8v311.99c63.9-55.78 146.2-85.91 237.2-85.91 181.3 0 376.9 146.48 376.9 383.14 0 265.19-220.4 384.43-376.9 384.43M16485.7 6178.63h-174.3l-316.3-316.31v316.31h-125.9v-743.76h125.9v256.21l57.3 56.49 309.2-312.7h176.1l-399.4 399.38zM17364.6 5776.4h190.7c174.4 0 174.4-86.8 174.4-115.34 0-35.04 0-100.27-178.2-100.27h-186.9zm317.3 201.08c0-26.7 0-76.4-126.6-76.4h-190.7v151.57h186.9c86.5 0 130.4-25.29 130.4-75.17m77.4-129.28c30.1 32.97 47.4 76.58 47.4 121.78 0 130.65-95.4 208.65-255.2 208.65h-312.8v-743.76h312.8c251.4 0 304.2 124.38 304.2 228.73 0 78.41-34 142.88-96.4 184.6M18732.8 5805.48c0 179.15 146 259.75 249.8 259.75 114.8 0 238.3-81.3 238.3-259.75 0-177.57-123.5-258.46-238.3-258.46-103.8 0-249.8 80.18-249.8 258.46m486.9 373.15v-75.17c-63.5 56.14-145.9 86.45-237.1 86.45-156.5 0-376.9-119.24-376.9-384.43 0-236.66 195.6-383.14 376.9-383.14 90.9 0 173.3 30.13 237.1 85.91v-73.38h125.9v743.76zM8368.12 296.91C8368.12 132.93 8235.18 0 8071.2 0s-296.91 132.93-296.91 296.91 132.93 296.91 296.91 296.91 296.92-132.929 296.92-296.91M9264.86 4267.13l325.11 42.59c43.31 470.91 18.47 956.21-83.22 1443.25-120.78 578.46-340.61 1109.98-636.46 1582.21-9.55 15.16-19.15 30.29-28.86 45.34-35.56 55.37-72.59 109.54-110.23 163.21-16.75 23.77-33.15 47.8-50.31 71.24-30.31 41.59-61.98 81.96-93.51 122.46-19.41 24.85-38.3 50.12-58.18 74.56l-865.17-1433.47c786.74-464.87 1368.14-1220.38 1600.83-2111.39M4791.4 3564V1842.03l1128.54 1869.84zM5830.29 6874.63c633.78 0 1223.52-160.04 1733.4-439.26l886.82 1469.38c-24.28 28.37-48.13 57.14-73.05 84.93-8.47 9.47-17.09 18.78-25.63 28.18-201.38 221.07-422.65 423.43-661.34 603.8-4.34 3.28-8.68 6.54-13.03 9.8-39.46 29.61-80 57.8-120.38 86.2L5033.62 6874.63zM3332.94 5775.78v1098.85h1504.54l2618.63 1912.55c-760.26 506.43-1671.14 802.05-2650.94 802.05-354.13 0-698.9-39.62-1031.25-112.73-84.91-19.2-169.42-39.48-252.6-63.06-3.15-.87-6.28-1.81-9.43-2.69l-1489.5-4592.16zM3378.22 9371.92C1436.08 8755.48 24.223 6937.63.676 4783.89c-.133-28.66-.961-57.22-.574-85.95.113-17.35 1.007-34.5 1.296-51.8 6.997-292.15 39.79-587.73 101.657-884.02 20.707-99.22 45.254-196.59 71.621-293.02L1863.73 4702.72zM1802.84 4514.99 208.855 3350.8c26.321-87.55 54.579-174.06 85.446-259.1l1093.349 143.26zM7782.97 4072.95c-136.19 465.42-417.73 864.66-835.07 1118.99l-805.08-1333.91zM6847.53 5248.8c-285.99 150.74-628.96 237.65-1027.25 237.65H4791.4V3680.96l1205.19 157.92zM1514.08 3251.53l1818.86 238.32v2142.67L1961.5 4630.87zM6066.17 3731.04 4791.4 1618.9v-397.45h1028.88c1338.63 0 2057.85 975.68 2057.85 2172.73 0 194.38-22.3 384.29-65.36 565.72zM9376.64 3394.18c0-44.59-1.7-88.71-3.24-132.86 97.24 300.12 165.68 611.22 202.94 929.67l-284.76-37.32c55.12-244.84 85.06-498.81 85.06-759.49M336.754 2980.31c156.488-400.27 362.613-770.64 609.711-1105.54l401.565 1238.04zM1031.23 1762.89C1623.1 1007.84 2427.12 447.18 3332.94 152.629V3372.9l-1858.47-243.52zM12339.5 3795.84c0 345.52-233.8 633.92-631.3 633.92h-298.8V3151.49h298.8c397.5 0 631.3 288.4 631.3 644.35m291 0c0-511.83-394.9-914.54-919.7-914.54h-587.2v1818.65h587.2c524.8 0 919.7-402.71 919.7-904.11M14168.3 3411.32l-101.3-101.34V2881.3h-280.6v428.68l-101.3 101.34-527.4-530.02h-371.5l714.5 719.65-623.6 631.35h358.6l550.7-545.58v545.58h280.6v-545.58l550.8 545.58h358.6l-623.6-631.35 714.5-719.65h-371.6z" style="fill:#353535;fill-opacity:1;fill-rule:nonzero;stroke:none" transform="matrix(.13333 0 0 -.13333 0 1278.56)"/><path d="M15233.4 3660.71h826.2c-31.2 236.43-236.4 353.34-410.5 353.34s-368.9-116.91-415.7-353.34m1073-205.24h-1075.6c41.6-241.61 233.9-361.13 452.1-361.13 179.2 0 275.4 46.76 374.1 124.7l158.5-150.67c-119.5-135.09-291-213.03-540.4-213.03-342.9 0-724.8 233.82-724.8 698.86 0 467.64 392.3 701.46 698.8 701.46 306.6 0 722.3-233.82 657.3-800.19M17667.6 3556.8c0 298.77-226 449.47-436.4 449.47-210.5 0-415.7-148.1-415.7-449.47 0-303.97 205.2-452.07 415.7-452.07 210.4 0 436.4 150.7 436.4 452.07m272.8 0c0-472.86-366.3-701.46-672.9-701.46-244.2 0-405.3 140.27-439 249.39v-717.07h-280.6V4232.3h280.6v-210.46c33.7 88.34 194.8 233.82 439 233.82 306.6 0 672.9-233.82 672.9-698.86M18392.4 3660.71h826.1c-31.1 236.43-236.4 353.34-410.5 353.34-174 0-368.9-116.91-415.6-353.34m1073-205.24h-1075.6c41.5-241.61 233.8-361.13 452-361.13 179.3 0 275.4 46.76 374.2 124.7l158.4-150.67c-119.5-135.09-291-213.03-540.4-213.03-342.9 0-724.8 233.82-724.8 698.86 0 467.64 392.3 701.46 698.8 701.46 306.6 0 722.3-233.82 657.4-800.19M21489.9 3554.2c0-298.77 228.6-449.47 426.1-449.47 197.4 0 426.1 150.7 426.1 449.47 0 301.37-228.7 452.07-426.1 452.07-197.5 0-426.1-150.7-426.1-452.07m1125 0c0-470.26-392.4-698.86-698.9-698.86-306.6 0-698.9 228.6-698.9 698.86 0 467.64 392.3 701.46 698.9 701.46 306.5 0 698.9-233.82 698.9-701.46M12796.8 1267.8l-246.9-275.402v-542.98h-293.5v542.98l-246.9 275.402-644.3-818.382h-332.5l797.6 1015.842-722.3 802.81h353.4l795-893.75v893.75h293.5v-893.75l795.1 893.75h353.3l-722.3-802.81 797.6-1015.842h-332.5zM15210.1 449.418h-280.6v836.562l-906.7-836.562h-41.6V1800.42h280.6v-836.6l906.7 836.6h41.6zM16464.8 1553.6h-376.7V449.418h-280.6V1553.6h-376.7v246.82h1034zM17654.6 1553.6h-376.7V449.418h-280.6V1553.6h-376.7v246.82h1034zM18740.5 1553.6h-389.7c-200.1 0-285.8-90.95-285.8-207.86 0-119.48 85.7-210.42 285.8-210.42h389.7zm280.6-1104.182h-280.6v439.07h-278l-405.3-439.07h-324.8l426.1 462.473c-220.8 57.148-366.3 213.029-366.3 433.849 0 275.4 231.2 454.68 558.6 454.68h670.3zM20430.2 4232.31h-18.5c-322.9 0-551.2-176.09-553.4-446.86-.3-.1-.5-.25-.8-.36v-558.23c0-72.76-28.5-114.72-111.7-114.34l-118.7.55v-247.34h191.5c174 0 319.5 62.33 319.5 363.7v549.61c.1-.01.1-.02.1-.03 0 .76-.1 1.49-.1 2.25v.89c.2 115.59 76.3 203.25 274.1 203.33h290.6V2881.31h280.6v1351z" style="fill:#353535;fill-opacity:1;fill-rule:nonzero;stroke:none" transform="matrix(.13333 0 0 -.13333 0 1278.56)"/></svg>